<?xml version="1.0" standalone="no"?>
<!DOCTYPE svg PUBLIC "-//W3C//DTD SVG 20010904//EN"
 "http://www.w3.org/TR/2001/REC-SVG-20010904/DTD/svg10.dtd">
<svg version="1.0" xmlns="http://www.w3.org/2000/svg"
 width="523.000000pt" height="482.000000pt" viewBox="0 0 523.000000 482.000000"
 preserveAspectRatio="xMidYMid meet">

<g transform="translate(0.000000,482.000000) scale(0.100000,-0.100000)"
fill="#000000" stroke="none">
<path d="M1257 4809 c-288 -24 -558 -159 -797 -399 -122 -122 -187 -209 -254
-340 -289 -565 -257 -1339 84 -2020 128 -256 221 -402 414 -645 140 -177 400
-460 536 -583 252 -226 613 -469 945 -634 223 -111 394 -178 456 -178 69 0
169 40 349 140 557 306 980 645 1395 1117 295 336 482 620 624 951 227 529
278 1103 140 1556 -91 297 -274 549 -514 709 -234 154 -478 227 -766 227 -279
0 -500 -64 -717 -209 -128 -86 -169 -137 -53 -67 74 45 209 99 313 125 289 72
605 37 873 -96 583 -291 783 -948 529 -1734 -184 -569 -568 -1078 -1231 -1631
-278 -232 -398 -312 -721 -485 l-215 -115 -69 28 c-391 157 -856 480 -1199
831 -471 484 -739 903 -864 1351 -96 346 -116 619 -64 888 62 325 202 548 447
712 272 181 616 199 927 48 263 -128 545 -428 709 -754 80 -158 126 -293 185
-537 l36 -150 100 -17 c55 -10 160 -28 234 -41 l134 -22 -151 -138 c-125 -113
-152 -143 -152 -165 0 -15 11 -99 24 -187 13 -88 23 -161 22 -162 -1 -1 -75
38 -163 87 -89 50 -167 90 -173 90 -5 0 -82 -36 -170 -80 -88 -44 -160 -77
-160 -72 0 4 14 82 30 172 17 90 30 169 30 176 0 6 -72 72 -160 145 -138 116
-157 135 -138 140 13 3 114 21 226 39 129 22 197 37 185 42 -21 9 -410 62
-818 112 -159 20 -308 38 -330 41 -39 5 -36 1 185 -212 124 -120 274 -265 334
-324 l109 -106 -85 -461 c-47 -254 -83 -462 -81 -462 3 0 190 95 416 212 227
116 417 211 422 211 6 0 191 -98 413 -218 221 -120 405 -215 408 -212 3 2 -27
202 -65 442 -39 241 -71 448 -71 460 0 16 93 113 330 345 182 178 329 324 327
326 -1 1 -198 30 -437 64 -239 33 -449 63 -467 66 -30 6 -32 10 -52 83 -61
224 -194 533 -313 725 -99 160 -293 382 -422 485 -143 114 -380 233 -549 276
-168 42 -276 50 -470 34z"/>
</g>
</svg>
