<?xml version="1.0" encoding="utf-8"?>
<svg viewBox="0 0 500 500" xmlns="http://www.w3.org/2000/svg">
  <g transform="matrix(0.087532, 0, 0, -0.087532, 7.332019, 434.169189)" fill="#000000" stroke="none" style="">
    <path d="M 1424.354 4472.254 C 1136.354 4448.254 866.354 4313.254 627.354 4073.254 C 505.354 3951.254 440.354 3864.254 373.354 3733.254 C 84.354 3168.254 116.354 2394.254 457.354 1713.254 C 585.354 1457.254 678.354 1311.254 871.354 1068.254 C 1011.354 891.254 1271.354 608.254 1407.354 485.254 C 1659.354 259.254 2020.354 16.254 2352.354 -148.746 C 2575.354 -259.746 2746.354 -326.746 2808.354 -326.746 C 2877.354 -326.746 2977.354 -286.746 3157.354 -186.746 C 3714.354 119.254 4137.354 458.254 4552.354 930.254 C 4847.354 1266.254 5034.354 1550.254 5176.354 1881.254 C 5403.354 2410.254 5454.354 2984.254 5316.354 3437.254 C 5225.354 3734.254 5042.354 3986.254 4802.354 4146.254 C 4568.354 4300.254 4324.354 4373.254 4036.354 4373.254 C 3757.354 4373.254 3536.354 4309.254 3319.354 4164.254 C 3191.354 4078.254 3150.354 4027.254 3266.354 4097.254 C 3340.354 4142.254 3475.354 4196.254 3579.354 4222.254 C 3868.354 4294.254 4184.354 4259.254 4452.354 4126.254 C 5035.354 3835.254 5235.354 3178.254 4981.354 2392.254 C 4797.354 1823.254 4413.354 1314.254 3750.354 761.254 C 3472.354 529.254 3352.354 449.254 3029.354 276.254 L 2814.354 161.254 L 2745.354 189.254 C 2354.354 346.254 1889.354 669.254 1546.354 1020.254 C 1075.354 1504.254 807.354 1923.254 682.354 2371.254 C 586.354 2717.254 566.354 2990.254 618.354 3259.254 C 680.354 3584.254 820.354 3807.254 1065.354 3971.254 C 1337.354 4152.254 1681.354 4170.254 1992.354 4019.254 C 2255.354 3891.254 2537.354 3591.254 2701.354 3265.254 C 2781.354 3107.254 2827.354 2972.254 2886.354 2728.254 L 2922.354 2578.254 L 3022.354 2561.254 C 3077.354 2551.254 3182.354 2533.254 3256.354 2520.254 L 3390.354 2498.254 L 3239.354 2360.254 C 3114.354 2247.254 3087.354 2217.254 3087.354 2195.254 C 3087.354 2180.254 3098.354 2096.254 3111.354 2008.254 C 3124.354 1920.254 3134.354 1847.254 3133.354 1846.254 C 3132.354 1845.254 3058.354 1884.254 2970.354 1933.254 C 2881.354 1983.254 2803.354 2023.254 2797.354 2023.254 C 2792.354 2023.254 2715.354 1987.254 2627.354 1943.254 C 2539.354 1899.254 2467.354 1866.254 2467.354 1871.254 C 2467.354 1875.254 2481.354 1953.254 2497.354 2043.254 C 2514.354 2133.254 2527.354 2212.254 2527.354 2219.254 C 2527.354 2225.254 2455.354 2291.254 2367.354 2364.254 C 2229.354 2480.254 2210.354 2499.254 2229.354 2504.254 C 2242.354 2507.254 2343.354 2525.254 2455.354 2543.254 C 2584.354 2565.254 2652.354 2580.254 2640.354 2585.254 C 2619.354 2594.254 2230.354 2647.254 1822.354 2697.254 C 1663.354 2717.254 1514.354 2735.254 1492.354 2738.254 C 1453.354 2743.254 1456.354 2739.254 1677.354 2526.254 C 1801.354 2406.254 1951.354 2261.254 2011.354 2202.254 L 2120.354 2096.254 L 2035.354 1635.254 C 1988.354 1381.254 1952.354 1173.254 1954.354 1173.254 C 1957.354 1173.254 2144.354 1268.254 2370.354 1385.254 C 2597.354 1501.254 2787.354 1596.254 2792.354 1596.254 C 2798.354 1596.254 2983.354 1498.254 3205.354 1378.254 C 3426.354 1258.254 3610.354 1163.254 3613.354 1166.254 C 3616.354 1168.254 3586.354 1368.254 3548.354 1608.254 C 3509.354 1849.254 3477.354 2056.254 3477.354 2068.254 C 3477.354 2084.254 3570.354 2181.254 3807.354 2413.254 C 3989.354 2591.254 4136.354 2737.254 4134.354 2739.254 C 4133.354 2740.254 3936.354 2769.254 3697.354 2803.254 C 3458.354 2836.254 3248.354 2866.254 3230.354 2869.254 C 3200.354 2875.254 3198.354 2879.254 3178.354 2952.254 C 3117.354 3176.254 2984.354 3485.254 2865.354 3677.254 C 2766.354 3837.254 2572.354 4059.254 2443.354 4162.254 C 2300.354 4276.254 2063.354 4395.254 1894.354 4438.254 C 1726.354 4480.254 1618.354 4488.254 1424.354 4472.254 Z" style="fill: none; stroke: rgb(0, 0, 0); stroke-width: 194.215px;"/>
  </g>
</svg>